<svg width="44" height="40" viewBox="0 0 44 40" fill="none" xmlns="http://www.w3.org/2000/svg">
<path d="M38.1712 6.02217C37.2135 5.06406 36.0764 4.30401 34.825 3.78546C33.5735 3.2669 32.2321 3 30.8774 3C29.5228 3 28.1814 3.2669 26.9299 3.78546C25.6784 4.30401 24.5413 5.06406 23.5837 6.02217L21.5962 8.00967L19.6087 6.02217C17.6742 4.08775 15.0506 3.001 12.3149 3.001C9.57923 3.001 6.95559 4.08775 5.02117 6.02217C3.08675 7.9566 2 10.5802 2 13.3159C2 16.0516 3.08675 18.6753 5.02117 20.6097L7.00867 22.5972L21.5962 37.1847L36.1837 22.5972L38.1712 20.6097C39.1293 19.652 39.8893 18.515 40.4079 17.2635C40.9264 16.012 41.1933 14.6706 41.1933 13.3159C41.1933 11.9613 40.9264 10.6199 40.4079 9.36838C39.8893 8.1169 39.1293 6.97984 38.1712 6.02217Z" stroke="white" stroke-width="5" stroke-linecap="round" stroke-linejoin="round"/>
</svg>
